<svg width="18" height="18" viewBox="0 0 18 18" fill="none" xmlns="http://www.w3.org/2000/svg">
<g clip-path="url(#clip0_1_982)">
<path d="M12.3916 4.84082C13.5016 4.81372 14.5584 5.25591 15.2979 6.03809C14.2073 6.88617 13.5421 8.15933 13.542 9.56445C13.542 11.1974 14.4563 12.693 15.8809 13.458C15.6168 14.165 15.2614 14.8283 14.8301 15.4473C14.4262 16.0029 14.0498 16.5152 13.6338 16.8936C13.2259 17.2645 12.8254 17.4647 12.3799 17.4648C11.8764 17.4648 11.5624 17.3281 11.1348 17.1504C10.6891 16.9652 10.1648 16.7589 9.34375 16.7588C8.53807 16.7588 7.98412 16.9749 7.52051 17.167C7.06081 17.3574 6.73495 17.4999 6.27148 17.5C5.85884 17.5 5.48526 17.3228 5.08496 16.959C4.77709 16.6792 4.477 16.3117 4.1543 15.875L3.82324 15.416C2.68709 13.7312 2.036 11.7843 2 9.74121C2 6.50338 4.10929 4.87695 6.12695 4.87695C6.64094 4.87705 7.12567 5.03931 7.62207 5.23145C7.85843 5.32293 8.11665 5.42874 8.35352 5.50684C8.59227 5.58554 8.85808 5.65332 9.12695 5.65332C9.39008 5.65324 9.65981 5.58068 9.90234 5.50098C10.1446 5.42136 10.4238 5.31075 10.6816 5.21582C11.2239 5.01616 11.7868 4.84082 12.3799 4.84082V4.8418L12.3916 4.84082ZM12.1846 0.59082C12.1076 1.30732 11.8292 1.98154 11.3516 2.53027L11.3438 2.54004C10.8672 3.11474 10.1927 3.51272 9.46094 3.63379C9.5323 2.91452 9.83369 2.25134 10.3262 1.71387L10.332 1.70801C10.8158 1.16099 11.4666 0.770974 12.1846 0.59082Z" fill="black" stroke="#141414"/>
</g>
<defs>
<clipPath id="clip0_1_982">
<rect width="18" height="18" fill="white"/>
</clipPath>
</defs>
</svg>
